<?xml version="1.0" encoding="UTF-8" standalone="no"?>
<!-- Created with Inkscape (http://www.inkscape.org/) -->

<svg
   version="1.1"
   id="svg2"
   xml:space="preserve"
   width="189.33333"
   height="30.666668"
   viewBox="0 0 189.33333 30.666668"
   sodipodi:docname="Logo-WM-Schwarz.svg"
   inkscape:version="1.1.2 (0a00cf5339, 2022-02-04)"
   xmlns:inkscape="http://www.inkscape.org/namespaces/inkscape"
   xmlns:sodipodi="http://sodipodi.sourceforge.net/DTD/sodipodi-0.dtd"
   xmlns="http://www.w3.org/2000/svg"
   xmlns:svg="http://www.w3.org/2000/svg"><defs
     id="defs6" /><sodipodi:namedview
     id="namedview4"
     pagecolor="#ffffff"
     bordercolor="#000000"
     borderopacity="0.25"
     inkscape:pageshadow="2"
     inkscape:pageopacity="0.0"
     inkscape:pagecheckerboard="0"
     showgrid="false"
     inkscape:zoom="6.5809861"
     inkscape:cx="94.666664"
     inkscape:cy="15.347244"
     inkscape:window-width="2560"
     inkscape:window-height="1367"
     inkscape:window-x="0"
     inkscape:window-y="0"
     inkscape:window-maximized="1"
     inkscape:current-layer="g8" /><g
     id="g8"
     inkscape:groupmode="layer"
     inkscape:label="ink_ext_XXXXXX"
     transform="matrix(1.3333333,0,0,-1.3333333,0,30.666667)"><g
       id="g10"
       transform="scale(0.1)"><path
         d="m 1254.63,139.609 h 163.72 V 53.3672 c 0,-16.6328 -11.53,-38.8867 -35.42,-45.17579 -24.05,-6.32422 -47.4,-4.87891 -73.63,-4.87891 h -109.36 c -36.23,-0.51172 -67.2,-3.070312 -85.95,9.4336 -14.1,9.3984 -23.29,24.1484 -23.08,40.6211 V 178.707 c -0.25,17.387 10.03,30.035 23.33,40.512 16.24,12.785 49.95,9.586 85.72,9.586 h 109.33 c 43.17,0 71.64,-0.114 87.51,-10.973 24.29,-16.621 22.2,-49.199 22.2,-49.199 h -109.89 c -3.47,16.269 -13.17,20.515 -35.37,20.515 -13.87,0 -14.66,0.004 -35.22,0.004 -24.06,0.239 -33.08,-7.625 -32.93,-21.265 V 67.9961 c 0,-12.0234 1.82,-17.3242 11.62,-21.8672 7.67,-3.6953 20.74,-3.082 35.67,-3.082 4.72,0 16.67,-0.0235 27.85,-0.0235 26.3,0 28.58,13.7735 28.58,28.8164 v 26.6758 h -54.68 v 41.0934"
         style="fill:#FFED00;fill-opacity:1;fill-rule:nonzero;stroke:none"
         id="path12" /><path
         d="m 392.473,3.3125 0.004,225.4925 H 507.16 L 507.145,63.4883 H 656.742 L 656.738,3.3125 H 392.473"
         style="fill:#FFED00;fill-opacity:1;fill-rule:nonzero;stroke:none"
         id="path14" /><path
         d="M 213.16,136.555 V 95.8203 C 213.148,89.0664 214.199,72.125 203.07,67.6094 188.828,61.8281 178.453,63.6953 164.027,63.4688 H 114.898 V 168.887 h 49.2 c 14.425,-0.227 24.757,1.636 39.004,-4.145 11.128,-4.515 10.046,-21.437 10.058,-28.187 z M 218.691,3.32422 c 29.836,0 62.375,-2.347657 83.7,7.53128 21.523,9.8828 25.297,36.0156 25.308,49.6133 l 0.043,110.8362 c -0.012,13.597 -3.781,39.73 -25.304,49.613 -21.325,9.879 -53.891,7.887 -83.731,7.887 H 0.300781 V 3.30859 L 218.691,3.32422"
         style="fill:#FFED00;fill-opacity:1;fill-rule:evenodd;stroke:none"
         id="path16" /><path
         d="m 823.094,188.93 h 49.574 c 15.703,0 27.742,1.195 38.437,-3.571 13.075,-5.82 11.301,-15.832 11.301,-21.062 0,-5.086 1.297,-15.926 -11.301,-21.227 -11.363,-4.785 -19.652,-3.465 -38.437,-3.465 H 823.094 Z M 708.395,3.3125 V 228.789 h 216.656 c 25.054,-0.312 53.355,1.941 73.613,-7.121 23.066,-10.328 35.586,-22.191 35.586,-46.898 l -0.16,-6.079 c 0,-19.296 -8.43,-29.32 -25.27,-39.691 -16.625,-10.375 -37.152,-11.855 -76.375,-11.855 h 46.961 c 14.918,0 27.714,-2.497 38.374,-7.485 10.87,-4.894 16.31,-18.1639 16.31,-25.0116 V 3.3125 H 919.48 l 0.016,71.3867 c 0,6.8477 0.512,17.9961 -9.598,21.0742 C 898.82,99.1445 891.84,98.1758 874.082,98.5 H 823.09 V 3.3125 H 708.395"
         style="fill:#FFED00;fill-opacity:1;fill-rule:evenodd;stroke:none"
         id="path18" /></g></g></svg>
